<svg width="40" height="40" viewBox="0 0 40 40" fill="none" xmlns="http://www.w3.org/2000/svg">
<g clip-path="url(#clip0)">
<path d="M8.5 8.5C12.3891 4.61091 18.9393 1.26167 29.5459 6.21142C29.8629 5.57749 30.2044 4.93624 30.4802 4.41853C30.8196 3.78129 31.0593 3.33122 31.0308 3.31233C23.2653 -1.83249 12.6997 -0.983982 5.85786 5.85786C-1.95262 13.6683 -1.95262 26.3316 5.85786 34.1421C7.58341 30.9376 8.96521 28.0767 10.1231 25.6795C10.6259 24.6384 11.0865 23.6848 11.5147 22.8284C10.9982 22.9022 10.5124 22.976 10.0479 23.0466C8.28653 23.3142 6.82933 23.5355 5.15076 23.5355C3.02944 18.5858 4.25736 12.7426 8.5 8.5Z" fill="#DADCDF"/>
<path d="M31.5 31.5C27.6109 35.3891 21.0607 38.7383 10.4541 33.7886C10.1371 34.4225 9.79555 35.0638 9.51981 35.5815C9.1804 36.2187 8.94068 36.6688 8.96919 36.6877C16.7347 41.8325 27.3003 40.984 34.1421 34.1421C41.9526 26.3316 41.9526 13.6684 34.1421 5.85786C32.4166 9.06244 31.0348 11.9233 29.8769 14.3205C29.3741 15.3616 28.9135 16.3152 28.4853 17.1716C29.0018 17.0978 29.4876 17.024 29.9521 16.9534C31.7135 16.6858 33.1707 16.4645 34.8492 16.4645C36.9706 21.4142 35.7426 27.2574 31.5 31.5Z" fill="#DADCDF"/>
<animateTransform
attributeName="transform"
attributeType="XML"
type="rotate"
dur="3s"
values="360 20 20;0 20 20"
repeatCount="indefinite"
/>
</g>
<defs>
<clipPath id="clip0">
<rect width="40" height="40" fill="white"/>
</clipPath>
</defs>
</svg>
