<svg width="60" height="60" viewBox="0 0 60 60" fill="none" xmlns="http://www.w3.org/2000/svg">
<rect width="60" height="60" rx="30" fill="url(#paint0_linear)"/>
<path d="M27.9048 26.1674C26.1175 26.7991 24.1941 27.1429 22.1905 27.1429C19.0342 27.1429 16.1768 28.4223 14.1086 30.4909C12.6733 31.9264 13.4388 34.1956 15.2544 35.1034C16.262 35.6072 17.4703 35.1598 18.2941 34.3915C19.3149 33.4396 20.6846 32.8571 22.1905 32.8571C25.3464 32.8572 27.9047 35.4155 27.9047 38.5714C27.9047 41.7273 25.3464 44.2857 22.1905 44.2857C20.5642 44.2857 19.0966 43.6063 18.056 42.5159C17.278 41.7007 16.0975 41.1827 15.0617 41.6266C13.1961 42.4262 12.2986 44.6462 13.6474 46.1629C15.7408 48.517 18.7924 50 22.1905 50C28.5023 50 33.619 44.8833 33.619 38.5714C33.619 38.0879 33.589 37.6114 33.5307 37.1437C36.4156 39.6904 38.4367 43.1929 39.0985 47.1557C39.3584 48.7121 40.6125 50 42.1905 50C43.7684 50 45.0664 48.7153 44.8716 47.1494C43.9521 39.758 39.5035 33.4618 33.2648 30C39.5035 26.5382 43.9521 20.242 44.8716 12.8506C45.0664 11.2847 43.7684 10 42.1905 10C40.6125 10 39.3584 11.288 39.0985 12.8444C38.4435 16.7666 36.4568 20.2379 33.6191 22.7778V12.8571C33.6191 11.2792 32.3399 10 30.7619 10C29.184 10 27.9048 11.2792 27.9048 12.8571V26.1674Z" fill="white"/>
<defs>
<linearGradient id="paint0_linear" x1="0" y1="60" x2="60" y2="0" gradientUnits="userSpaceOnUse">
<stop stop-color="#B99BC9"/>
<stop offset="1" stop-color="#838BC5"/>
</linearGradient>
</defs>
</svg>
