<svg width="22" height="16" viewBox="0 0 22 16" fill="none" xmlns="http://www.w3.org/2000/svg">
<path d="M11 3C10.4477 3 10 3.44772 10 4V4.87868C8.48929 5.06278 7.10568 5.65862 5.9648 6.55059L5.4134 5.99919C5.02288 5.60867 4.38971 5.60867 3.99919 5.99919C3.60867 6.38972 3.60867 7.02288 3.99919 7.41341L4.55059 7.9648C3.85949 8.84875 3.34617 9.87841 3.06439 11H2C1.44772 11 1 11.4477 1 12C1 12.5523 1.44772 13 2 13H20C20.5523 13 21 12.5523 21 12C21 11.4477 20.5523 11 20 11H18.9356C18.6472 9.85213 18.1163 8.80055 17.4005 7.90291L18.0053 7.29817C18.3958 6.90765 18.3958 6.27449 18.0053 5.88396C17.6147 5.49344 16.9816 5.49344 16.5911 5.88396L15.9728 6.50226C14.844 5.6371 13.4833 5.05943 12 4.87868V4C12 3.44772 11.5523 3 11 3Z" fill="#101B23"/>
</svg>
