<svg width="22" height="11" viewBox="0 0 22 11" fill="none" xmlns="http://www.w3.org/2000/svg">
<path d="M11 2C11.5523 2 12 1.55228 12 1C12 0.447715 11.5523 0 11 0C10.4477 0 10 0.447715 10 1C10 1.55228 10.4477 2 11 2Z" fill="#101B23"/>
<path d="M18.8442 11C18.8442 6.58172 15.2625 3 10.8442 3C6.42593 3 2.84421 6.58172 2.84421 11H18.8442Z" fill="#101B23"/>
<path d="M22 10C22 10.5523 21.5523 11 21 11C20.4477 11 20 10.5523 20 10C20 9.44771 20.4477 9 21 9C21.5523 9 22 9.44771 22 10Z" fill="#101B23"/>
<path d="M18 5C18.5523 5 19 4.55228 19 4C19 3.44772 18.5523 3 18 3C17.4477 3 17 3.44772 17 4C17 4.55228 17.4477 5 18 5Z" fill="#101B23"/>
<path d="M5 4C5 4.55228 4.55228 5 4 5C3.44772 5 3 4.55228 3 4C3 3.44772 3.44772 3 4 3C4.55228 3 5 3.44772 5 4Z" fill="#101B23"/>
<path d="M1 11C1.55228 11 2 10.5523 2 10C2 9.44771 1.55228 9 1 9C0.447715 9 0 9.44771 0 10C0 10.5523 0.447715 11 1 11Z" fill="#101B23"/>
</svg>
