<svg width="22" height="16" viewBox="0 0 22 16" fill="none" xmlns="http://www.w3.org/2000/svg">
<path d="M10 6C10 5.44772 10.4477 5 11 5C11.5523 5 12 5.44772 12 6V10.2676C12.5978 10.6134 13 11.2597 13 12C13 13.1046 12.1046 14 11 14C9.89543 14 9 13.1046 9 12C9 11.2597 9.4022 10.6134 10 10.2676V6Z" fill="#101B23"/>
<path fill-rule="evenodd" clip-rule="evenodd" d="M8 9.35418V3C8 1.34315 9.34315 0 11 0C12.6569 0 14 1.34315 14 3V9.35418C14.6224 10.0593 15 10.9856 15 12C15 14.2091 13.2091 16 11 16C8.79086 16 7 14.2091 7 12C7 10.9856 7.37764 10.0593 8 9.35418ZM8.76389 10C8.28885 10.5308 8 11.2316 8 12C8 13.6569 9.34315 15 11 15C12.6569 15 14 13.6569 14 12C14 11.2316 13.7111 10.5308 13.2361 10L13 9.75391V3C13 1.89543 12.1046 1 11 1C9.89543 1 9 1.89543 9 3V9.75391L8.76389 10Z" fill="#101B23"/>
</svg>
