<svg xmlns="http://www.w3.org/2000/svg" xmlns:xlink="http://www.w3.org/1999/xlink" viewBox="0 0 200 200"><defs><style>.cls-1{fill:url(#linear-gradient);}.cls-2{fill:url(#linear-gradient-2);}.cls-3{fill:url(#linear-gradient-3);}.cls-4{fill:url(#linear-gradient-4);}</style><linearGradient id="linear-gradient" x1="20.38" y1="101.3" x2="103.53" y2="53.29" gradientUnits="userSpaceOnUse"><stop offset="0" stop-color="#fbb03b"/><stop offset="1" stop-color="#f15a24"/><stop offset="1"/></linearGradient><linearGradient id="linear-gradient-2" x1="30.09" y1="159.12" x2="78.09" y2="75.97" gradientUnits="userSpaceOnUse"><stop offset="0" stop-color="#838bc5"/><stop offset="1" stop-color="#ba9bc9"/><stop offset="1" stop-color="#f15a24"/><stop offset="1"/></linearGradient><linearGradient id="linear-gradient-3" x1="93.19" y1="88.93" x2="117.42" y2="46.96" xlink:href="#linear-gradient-2"/><linearGradient id="linear-gradient-4" x1="98.95" y1="191.44" x2="161.75" y2="82.67" xlink:href="#linear-gradient-2"/></defs><title>saclled attempt</title><g id="weather_icon" data-name="weather icon"><g id="heavy_clouds" data-name="heavy clouds"><circle id="sun" class="cls-1" cx="61.96" cy="77.29" r="48"/><g id="heavy_rain" data-name="heavy rain"><g id="Cloud"><path class="cls-2" d="M102.09,117.54a47.82,47.82,0,0,1-12,31.72,2.61,2.61,0,0,1-.23.25,48,48,0,1,1-35.79-80,49,49,0,0,1,6.21.4,48,48,0,0,1,41.79,47.6Z"/><path class="cls-3" d="M145.82,73.74A48,48,0,0,0,90.08,85.8,47.83,47.83,0,0,0,60.3,69.94a48,48,0,0,1,85.52,3.8Z"/><path class="cls-4" d="M193.91,141.54a24,24,0,0,1-24,24H54.09a47.79,47.79,0,0,0,35.79-16h.45l-.22-.25a48,48,0,0,0,0-63.46,48,48,0,0,1,84,31.71v.41A24,24,0,0,1,193.91,141.54Z"/></g></g></g></g></svg>