<svg xmlns="http://www.w3.org/2000/svg" xmlns:xlink="http://www.w3.org/1999/xlink" viewBox="0 0 200 200"><defs><style>.cls-1{fill:url(#linear-gradient);}.cls-2{fill:url(#linear-gradient-2);}.cls-3{fill:url(#linear-gradient-3);}.cls-4{fill:url(#linear-gradient-4);}</style><linearGradient id="linear-gradient" x1="110.89" y1="79.88" x2="200" y2="79.88" gradientUnits="userSpaceOnUse"><stop offset="0" stop-color="#9babe2"/><stop offset="1" stop-color="#d4f2ff"/></linearGradient><linearGradient id="linear-gradient-2" x1="27.31" y1="161.7" x2="75.32" y2="78.55" gradientUnits="userSpaceOnUse"><stop offset="0" stop-color="#838bc5"/><stop offset="1" stop-color="#ba9bc9"/><stop offset="1" stop-color="#f15a24"/><stop offset="1"/></linearGradient><linearGradient id="linear-gradient-3" x1="90.41" y1="91.51" x2="114.65" y2="49.54" xlink:href="#linear-gradient-2"/><linearGradient id="linear-gradient-4" x1="96.18" y1="194.02" x2="158.98" y2="85.25" xlink:href="#linear-gradient-2"/></defs><title>saclled attempt</title><g id="weather_icon" data-name="weather icon"><g id="heavy_clouds" data-name="heavy clouds"><g id="heavy_rain" data-name="heavy rain"><path id="moon" class="cls-1" d="M200,104.66a48,48,0,1,1-41.11-72.78h.92A48,48,0,0,0,200,104.66Z"/><g id="Cloud"><path class="cls-2" d="M99.32,120.12a47.72,47.72,0,0,1-6.21,23.61,46.83,46.83,0,0,1-5.78,8.11,2.61,2.61,0,0,1-.23.25,48,48,0,1,1-35.78-80,48.79,48.79,0,0,1,6.2.4,48.07,48.07,0,0,1,41.8,47.6Z"/><path class="cls-3" d="M143,76.32A48,48,0,0,0,87.3,88.38,47.8,47.8,0,0,0,57.52,72.52,48,48,0,0,1,143,76.32Z"/><path class="cls-4" d="M191.13,144.12a24,24,0,0,1-24,24H51.32a47.79,47.79,0,0,0,35.78-16h.46l-.23-.25a46.83,46.83,0,0,0,5.78-8.11A47.95,47.95,0,0,0,87.3,88.38a48,48,0,0,1,84,31.71v.41A24,24,0,0,1,191.13,144.12Z"/></g></g></g></g></svg>