<svg xmlns="http://www.w3.org/2000/svg" xmlns:xlink="http://www.w3.org/1999/xlink" viewBox="0 0 200 200"><defs><style>.cls-1{fill:url(#linear-gradient);}.cls-2{fill:url(#linear-gradient-2);}.cls-3{fill:url(#linear-gradient-3);}</style><linearGradient id="linear-gradient" x1="30.09" y1="153.54" x2="78.09" y2="70.39" gradientUnits="userSpaceOnUse"><stop offset="0" stop-color="#838bc5"/><stop offset="1" stop-color="#ba9bc9"/><stop offset="1" stop-color="#f15a24"/><stop offset="1"/></linearGradient><linearGradient id="linear-gradient-2" x1="93.19" y1="83.36" x2="117.42" y2="41.39" xlink:href="#linear-gradient"/><linearGradient id="linear-gradient-3" x1="98.95" y1="185.87" x2="161.75" y2="77.09" xlink:href="#linear-gradient"/></defs><title>saclled attempt</title><g id="basic_shape" data-name="basic shape"><g id="Cloud"><path class="cls-1" d="M102.09,112a47.91,47.91,0,0,1-12,31.72c-.06.08-.15.16-.23.25A48,48,0,1,1,54.09,64a47.17,47.17,0,0,1,6.21.4A48,48,0,0,1,102.09,112Z"/><path class="cls-2" d="M145.82,68.17A48,48,0,0,0,90.08,80.23,47.78,47.78,0,0,0,60.3,64.37a48,48,0,0,1,85.52,3.8Z"/><path class="cls-3" d="M193.91,136a24,24,0,0,1-24,24H54.09a47.79,47.79,0,0,0,35.79-16h.45c-.07-.09-.15-.17-.22-.25a48,48,0,0,0,0-63.46,48,48,0,0,1,84,31.7v.41A24,24,0,0,1,193.91,136Z"/></g></g></svg>