<svg xmlns="http://www.w3.org/2000/svg" xmlns:xlink="http://www.w3.org/1999/xlink" viewBox="0 0 200 200"><defs><style>.cls-1{fill:url(#linear-gradient);}.cls-2{fill:url(#linear-gradient-2);}.cls-3{fill:url(#linear-gradient-3);}</style><linearGradient id="linear-gradient" x1="28" y1="142.17" x2="76" y2="59.02" gradientUnits="userSpaceOnUse"><stop offset="0" stop-color="#838bc5"/><stop offset="1" stop-color="#ba9bc9"/><stop offset="1" stop-color="#f15a24"/><stop offset="1"/></linearGradient><linearGradient id="linear-gradient-2" x1="169.01" y1="135.63" x2="186.54" y2="105.26" xlink:href="#linear-gradient"/><linearGradient id="linear-gradient-3" x1="96.76" y1="174.43" x2="147.85" y2="85.95" xlink:href="#linear-gradient"/></defs><title>saclled attempt</title><g id="basic_shape" data-name="basic shape"><g id="cloud_test_1" data-name="cloud test 1"><path class="cls-1" d="M100,100.59A48,48,0,0,1,6.94,117.16,48,48,0,0,1,87.18,68,47.76,47.76,0,0,1,100,100.59Z"/><path class="cls-2" d="M196,124.59a23.92,23.92,0,0,1-11.09,20.22,95.68,95.68,0,0,0-20.78-42.89A24,24,0,0,1,196,124.59Z"/><path class="cls-3" d="M184.91,144.81A23.77,23.77,0,0,1,172,148.59H52A48,48,0,0,0,87.18,68c1.2,0,2.42-.07,3.63-.07a96,96,0,0,1,94.1,76.92Z"/></g></g></svg>