<svg xmlns="http://www.w3.org/2000/svg" xmlns:xlink="http://www.w3.org/1999/xlink" viewBox="0 0 200 200"><defs><style>.cls-1{fill:url(#linear-gradient);}.cls-2{fill:url(#linear-gradient-2);}.cls-3{fill:url(#linear-gradient-3);}.cls-4{fill:url(#linear-gradient-4);}.cls-5{fill:url(#linear-gradient-5);}.cls-6{fill:url(#linear-gradient-6);}.cls-7{fill:url(#linear-gradient-7);}.cls-8{fill:url(#linear-gradient-8);}.cls-9{fill:url(#linear-gradient-9);}</style><linearGradient id="linear-gradient" x1="75.18" y1="137.89" x2="80.18" y2="129.22" gradientUnits="userSpaceOnUse"><stop offset="0" stop-color="#29abe2"/><stop offset="1" stop-color="aqua"/></linearGradient><linearGradient id="linear-gradient-2" x1="105.18" y1="137.89" x2="110.18" y2="129.22" xlink:href="#linear-gradient"/><linearGradient id="linear-gradient-3" x1="135.18" y1="137.89" x2="140.18" y2="129.22" xlink:href="#linear-gradient"/><linearGradient id="linear-gradient-4" x1="90.18" y1="157.89" x2="95.18" y2="149.22" xlink:href="#linear-gradient"/><linearGradient id="linear-gradient-5" x1="120.18" y1="157.89" x2="125.18" y2="149.22" xlink:href="#linear-gradient"/><linearGradient id="linear-gradient-6" x1="60.18" y1="157.89" x2="65.18" y2="149.22" xlink:href="#linear-gradient"/><linearGradient id="linear-gradient-7" x1="41.74" y1="128.2" x2="81.74" y2="58.91" gradientUnits="userSpaceOnUse"><stop offset="0" stop-color="#838bc5"/><stop offset="1" stop-color="#ba9bc9"/><stop offset="1" stop-color="#f15a24"/><stop offset="1"/></linearGradient><linearGradient id="linear-gradient-8" x1="94.33" y1="69.71" x2="114.52" y2="34.74" xlink:href="#linear-gradient-7"/><linearGradient id="linear-gradient-9" x1="99.13" y1="155.14" x2="151.46" y2="64.49" xlink:href="#linear-gradient-7"/></defs><title>Illustrator Okay Weather</title><g id="weather_icon" data-name="weather icon"><g id="medium_rain" data-name="medium rain"><g id="Heavey_rain" data-name="Heavey rain"><circle id="rain" class="cls-1" cx="77.68" cy="133.56" r="5"/><circle id="rain-2" data-name="rain" class="cls-2" cx="107.68" cy="133.56" r="5"/><circle id="rain-3" data-name="rain" class="cls-3" cx="137.68" cy="133.56" r="5"/><circle id="rain-4" data-name="rain" class="cls-4" cx="92.68" cy="153.56" r="5"/><circle id="rain-5" data-name="rain" class="cls-5" cx="122.68" cy="153.56" r="5"/><circle id="rain-6" data-name="rain" class="cls-6" cx="62.68" cy="153.56" r="5"/></g><g id="Cloud"><path class="cls-7" d="M101.74,93.56a39.86,39.86,0,0,1-5.16,19.67A40.45,40.45,0,0,1,91.76,120l-.19.21a40,40,0,1,1,10.17-26.64Z"/><path class="cls-8" d="M138.18,57.06a40,40,0,0,0-46.45,10A39.82,39.82,0,0,0,66.91,53.89a40,40,0,0,1,71.27,3.17Z"/><path class="cls-9" d="M178.26,113.56a20,20,0,0,1-20,20H61.74A39.85,39.85,0,0,0,91.57,120.2h.37c0-.07-.12-.14-.18-.21a40.45,40.45,0,0,0,4.82-6.76,40,40,0,0,0-4.85-46.12,40,40,0,0,1,70,26.42v.34A20,20,0,0,1,178.26,113.56Z"/></g></g></g></svg>