<svg xmlns="http://www.w3.org/2000/svg" xmlns:xlink="http://www.w3.org/1999/xlink" viewBox="0 0 200 200"><defs><style>.cls-1{fill:url(#linear-gradient);}.cls-2{fill:url(#linear-gradient-2);}.cls-3{fill:url(#linear-gradient-3);}.cls-4{fill:url(#linear-gradient-4);}.cls-5{fill:url(#linear-gradient-5);}.cls-6{fill:url(#linear-gradient-6);}</style><linearGradient id="linear-gradient" x1="75.18" y1="134.51" x2="80.18" y2="125.85" gradientUnits="userSpaceOnUse"><stop offset="0" stop-color="#29abe2"/><stop offset="1" stop-color="aqua"/></linearGradient><linearGradient id="linear-gradient-2" x1="105.18" y1="134.51" x2="110.18" y2="125.85" xlink:href="#linear-gradient"/><linearGradient id="linear-gradient-3" x1="135.18" y1="134.51" x2="140.18" y2="125.85" xlink:href="#linear-gradient"/><linearGradient id="linear-gradient-4" x1="41.74" y1="124.82" x2="81.74" y2="55.52" gradientUnits="userSpaceOnUse"><stop offset="0" stop-color="#838bc5"/><stop offset="1" stop-color="#ba9bc9"/><stop offset="1" stop-color="#f15a24"/><stop offset="1"/></linearGradient><linearGradient id="linear-gradient-5" x1="94.33" y1="66.33" x2="114.52" y2="31.35" xlink:href="#linear-gradient-4"/><linearGradient id="linear-gradient-6" x1="99.13" y1="151.75" x2="151.46" y2="61.11" xlink:href="#linear-gradient-4"/></defs><title>Illustrator Okay Weather</title><g id="weather_icon" data-name="weather icon"><g id="drizzle"><g id="light_rain" data-name="light rain"><circle id="rain" class="cls-1" cx="77.68" cy="130.18" r="5"/><circle id="rain-2" data-name="rain" class="cls-2" cx="107.68" cy="130.18" r="5"/><circle id="rain-3" data-name="rain" class="cls-3" cx="137.68" cy="130.18" r="5"/></g><g id="Cloud"><path class="cls-4" d="M101.74,90.17a39.86,39.86,0,0,1-5.16,19.67,40.45,40.45,0,0,1-4.82,6.76l-.19.21a40,40,0,1,1,10.17-26.64Z"/><path class="cls-5" d="M138.18,53.67a40,40,0,0,0-46.45,10A39.82,39.82,0,0,0,66.91,50.5a40,40,0,0,1,71.27,3.17Z"/><path class="cls-6" d="M178.26,110.17a20,20,0,0,1-20,20H61.74a39.85,39.85,0,0,0,29.83-13.36h.37c0-.07-.12-.14-.18-.21a40.45,40.45,0,0,0,4.82-6.76,40,40,0,0,0-4.85-46.12,40,40,0,0,1,70,26.42v.34A20,20,0,0,1,178.26,110.17Z"/></g></g></g></svg>