<svg xmlns="http://www.w3.org/2000/svg" xmlns:xlink="http://www.w3.org/1999/xlink" viewBox="0 0 200 200"><defs><style>.cls-1{fill:url(#linear-gradient);}.cls-2{fill:url(#linear-gradient-2);}.cls-3{fill:url(#linear-gradient-3);}.cls-4{fill:url(#linear-gradient-4);}.cls-5{fill:url(#linear-gradient-5);}.cls-6{fill:url(#linear-gradient-6);}.cls-7{fill:url(#linear-gradient-7);}</style><linearGradient id="linear-gradient" x1="41.74" y1="124.82" x2="81.74" y2="55.52" gradientUnits="userSpaceOnUse"><stop offset="0" stop-color="#838bc5"/><stop offset="1" stop-color="#ba9bc9"/><stop offset="1" stop-color="#f15a24"/><stop offset="1"/></linearGradient><linearGradient id="linear-gradient-2" x1="94.33" y1="66.33" x2="114.52" y2="31.35" xlink:href="#linear-gradient"/><linearGradient id="linear-gradient-3" x1="99.13" y1="151.75" x2="151.46" y2="61.11" xlink:href="#linear-gradient"/><linearGradient id="linear-gradient-4" x1="-148.75" y1="-26.16" x2="-101.43" y2="-53.48" gradientTransform="translate(212.86 114.45) rotate(-30)" gradientUnits="userSpaceOnUse"><stop offset="0" stop-color="#ff0"/><stop offset="1" stop-color="#e9a300"/></linearGradient><linearGradient id="linear-gradient-5" x1="-121.59" y1="-12.8" x2="-74.27" y2="-40.12" xlink:href="#linear-gradient-4"/><linearGradient id="linear-gradient-6" x1="-96.45" y1="4.03" x2="-49.13" y2="-23.29" xlink:href="#linear-gradient-4"/><linearGradient id="linear-gradient-7" x1="-174.89" y1="-41.26" x2="-127.57" y2="-68.58" xlink:href="#linear-gradient-4"/></defs><title>Illustrator Okay Weather</title><g id="weather_icon" data-name="weather icon"><g id="thunder_storm" data-name="thunder storm"><g id="Cloud"><path class="cls-1" d="M101.74,90.17a39.86,39.86,0,0,1-5.16,19.67,40.45,40.45,0,0,1-4.82,6.76l-.19.21a40,40,0,1,1,10.17-26.64Z"/><path class="cls-2" d="M138.18,53.67a40,40,0,0,0-46.45,10A39.82,39.82,0,0,0,66.91,50.5a40,40,0,0,1,71.27,3.17Z"/><path class="cls-3" d="M178.26,110.17a20,20,0,0,1-20,20H61.74a39.85,39.85,0,0,0,29.83-13.36h.37c0-.07-.12-.14-.18-.21a40.45,40.45,0,0,0,4.82-6.76,40,40,0,0,0-4.85-46.12,40,40,0,0,1,70,26.42v.34A20,20,0,0,1,178.26,110.17Z"/></g><polygon id="thunder" class="cls-4" points="77.3 169.83 77.79 140.68 88.95 140.01 91.94 115.19 91.45 144.34 80.29 145.01 77.3 169.83"/><polygon id="thunder-2" data-name="thunder" class="cls-5" points="107.49 167.82 107.98 138.67 119.14 138 122.13 113.18 121.64 142.33 110.48 143 107.49 167.82"/><polygon id="thunder-3" data-name="thunder" class="cls-6" points="137.68 169.83 138.17 140.68 149.33 140.01 152.32 115.19 151.83 144.34 140.67 145.01 137.68 169.83"/><polygon id="thunder-4" data-name="thunder" class="cls-7" points="47.1 169.83 47.59 140.68 58.76 140.01 61.74 115.19 61.26 144.34 50.09 145.01 47.1 169.83"/></g></g></svg>