<svg xmlns="http://www.w3.org/2000/svg" xmlns:xlink="http://www.w3.org/1999/xlink" viewBox="0 0 200 200"><defs><style>.cls-1{fill:url(#linear-gradient);}</style><linearGradient id="linear-gradient" x1="62.4" y1="169.7" x2="137.6" y2="39.44" gradientUnits="userSpaceOnUse"><stop offset="0" stop-color="#9babe2"/><stop offset="1" stop-color="#d4f2ff"/></linearGradient></defs><title>Illustrator Okay Weather</title><g id="basic_shape" data-name="basic shape"><g id="snow_2" data-name="snow 2"><path class="cls-1" d="M170.62,109.25,138.73,117l-12.29-6.47V98.43l12.15-6.37,32,7.83a8,8,0,0,0,1.93.24,7.38,7.38,0,0,0,7.19-5c1.07-3.63-1.29-7.36-5.27-8.33l-17.56-4.3L173.1,74a6.48,6.48,0,0,0,2.75-9.28,7.83,7.83,0,0,0-10.17-2.51l-16.22,8.5,4.71-16c1.06-3.63-1.3-7.36-5.27-8.33s-8.06,1.18-9.13,4.81l-8.54,29.1L119,86.65l-11.59-6.12V67.7l23.44-21.39a6.39,6.39,0,0,0,0-9.62,8,8,0,0,0-10.54,0l-12.9,11.77V31.37c0-3.75-3.34-6.8-7.46-6.8s-7.45,3-7.45,6.8v17L79.69,36.69a8,8,0,0,0-10.54,0,6.39,6.39,0,0,0,0,9.62L92.5,67.61v13L81,86.64,68.77,80.23,60.23,51.14c-1.07-3.63-5.15-5.76-9.12-4.81s-6.34,4.7-5.27,8.33l4.7,16L34.32,62.19A7.84,7.84,0,0,0,24.14,64.7,6.49,6.49,0,0,0,26.9,74l16.19,8.48L25.53,86.75c-4,1-6.34,4.71-5.27,8.34a7.38,7.38,0,0,0,7.19,5,8,8,0,0,0,1.93-.24l32-7.83,12.13,6.36,0,12.15-12.3,6.48-31.89-7.8c-3.95-1-8.06,1.18-9.12,4.81s1.29,7.36,5.27,8.32L43,126.67l-16.14,8.5a6.48,6.48,0,0,0-2.72,9.28,7.58,7.58,0,0,0,6.45,3.4,7.81,7.81,0,0,0,3.72-.91l16.23-8.54-4.72,16.09c-1.07,3.63,1.29,7.35,5.27,8.33a8,8,0,0,0,1.93.23A7.38,7.38,0,0,0,60.23,158l8.58-29.22L81,122.35,92.5,128.4v13.13L69.15,162.84a6.39,6.39,0,0,0,0,9.62,8,8,0,0,0,10.54,0L92.5,160.77v17c0,3.76,3.34,6.8,7.45,6.8s7.46-3,7.46-6.8V160.68l12.9,11.78a8,8,0,0,0,10.54,0,6.39,6.39,0,0,0,0-9.62l-23.44-21.39v-13l11.58-6.1,12.2,6.43L139.77,158a7.39,7.39,0,0,0,7.19,5.05,8.1,8.1,0,0,0,1.94-.23c4-1,6.33-4.7,5.27-8.33l-4.73-16.09,16.23,8.54a7.81,7.81,0,0,0,3.72.91,7.58,7.58,0,0,0,6.45-3.4,6.48,6.48,0,0,0-2.72-9.28L157,126.67l17.49-4.29c4-1,6.34-4.69,5.27-8.32S174.59,108.3,170.62,109.25Zm-59.09,1.32L100,116.65l-11.53-6.08V98.41L100,92.33l11.53,6.09Z"/></g></g></svg>