<svg width="40" height="40" viewBox="0 0 40 40" fill="none" xmlns="http://www.w3.org/2000/svg">
<path d="M21 4C21.1683 4 21.336 4.0026 21.503 4.00776C19.91 5.99747 18.7824 8.37587 18.285 10.978C18.1235 10.7336 17.9525 10.4932 17.7713 10.2576C16.5381 8.65451 14.8481 7.29696 12.5005 6.44176C14.9631 4.8947 17.8771 4 21 4Z" fill="url(#paint0_linear)"/>
<path d="M11.4644 7.15072C9.55422 8.5706 7.97157 10.4063 6.85038 12.524C9.74801 13.5673 11.7739 15.2389 13.2672 17.1274C14.9825 19.2967 15.9925 21.7619 16.8191 23.7796C17.0416 24.3226 17.2508 24.8332 17.4569 25.2969C17.518 25.4345 17.579 25.5721 17.64 25.7099C18.5853 27.8433 19.5374 29.9923 21.0745 31.8709C22.1708 33.2108 23.5708 34.4186 25.4914 35.361C28.6871 34.4282 31.4691 32.5252 33.497 29.9922C24.8932 29.7265 18 22.6683 18 14C18 13.5157 18.0215 13.0365 18.0636 12.5632C17.7519 11.976 17.3936 11.4068 16.9787 10.8673C15.7545 9.2759 14.0175 7.92007 11.4644 7.15072Z" fill="url(#paint1_linear)"/>
<path d="M24.036 35.7123C22.4887 34.8005 21.283 33.705 20.3005 32.5041C18.6745 30.5167 17.6712 28.2507 16.7366 26.1396L16.7361 26.1385C16.6715 25.9926 16.6072 25.8474 16.5431 25.7031C16.3174 25.1954 16.0951 24.6537 15.8637 24.0896C15.0403 22.0833 14.1009 19.7941 12.4828 17.7476C11.0873 15.9828 9.18513 14.4051 6.40777 13.4278C5.56754 15.2905 5.07348 17.3429 5.00757 19.503C6.88594 20.3337 8.11047 22.0369 8.66565 23.8539C9.25485 25.7822 9.12679 27.9751 8.11751 29.4908C11.0311 33.4391 15.7165 36 21 36C22.0381 36 23.053 35.9011 24.036 35.7123Z" fill="url(#paint2_linear)"/>
<path d="M7.4919 28.5788C8.10062 27.3952 8.19676 25.7414 7.7093 24.1461C7.26322 22.6862 6.35421 21.3713 5.01192 20.6234C5.1238 23.5437 6.01839 26.2635 7.4919 28.5788Z" fill="url(#paint3_linear)"/>
<defs>
<linearGradient id="paint0_linear" x1="5.00757" y1="4" x2="36.8909" y2="33.0688" gradientUnits="userSpaceOnUse">
<stop stop-color="#D2F0FE"/>
<stop offset="1" stop-color="#A4B6E7"/>
</linearGradient>
<linearGradient id="paint1_linear" x1="5.00757" y1="4" x2="36.8909" y2="33.0688" gradientUnits="userSpaceOnUse">
<stop stop-color="#D2F0FE"/>
<stop offset="1" stop-color="#A4B6E7"/>
</linearGradient>
<linearGradient id="paint2_linear" x1="5.00757" y1="4" x2="36.8909" y2="33.0688" gradientUnits="userSpaceOnUse">
<stop stop-color="#D2F0FE"/>
<stop offset="1" stop-color="#A4B6E7"/>
</linearGradient>
<linearGradient id="paint3_linear" x1="5.00757" y1="4" x2="36.8909" y2="33.0688" gradientUnits="userSpaceOnUse">
<stop stop-color="#D2F0FE"/>
<stop offset="1" stop-color="#A4B6E7"/>
</linearGradient>
</defs>
</svg>
