<svg width="40" height="40" viewBox="0 0 40 40" fill="none" xmlns="http://www.w3.org/2000/svg">
<path d="M39.3931 12.6869C38.1321 13.5169 36.6225 13.9999 35 13.9999C30.5817 13.9999 27 10.4182 27 5.99994C27 4.6004 27.3594 3.2848 27.9909 2.14038C23.4467 2.94284 20 6.82557 20 11.4944C20 16.7445 24.3583 21.0005 29.7345 21.0005C34.6971 21.0005 38.7924 17.3741 39.3931 12.6869Z" fill="#88C2FC"/>
<path d="M21.9123 11.3507C20.2993 10.4887 18.4567 10 16.5 10C13.3739 10 10.5391 11.2474 8.4662 13.2715C10.0357 13.7 11.4247 14.3033 12.6962 15.0721C15.468 16.7481 17.6397 19.1863 19.9 22.2C20.495 22.9933 21.0676 23.7877 21.6316 24.5702C23.2313 26.7895 24.7617 28.9127 26.5364 30.6419C27.4855 31.5667 28.4967 32.3696 29.6146 33H34C37.3137 33 40 30.3137 40 27C40 26.832 39.9931 26.6657 39.9796 26.5012C28.816 26.947 22.2418 19.342 21.9123 11.3507Z" fill="url(#paint0_linear)"/>
<path d="M39.8127 25.5067C29.6099 25.857 23.5893 19.1579 22.9552 11.9812C24.5943 13.095 25.9306 14.621 26.8152 16.4102C27.4922 16.1454 28.2291 16 29 16C31.9979 16 34.4823 18.1986 34.9286 21.0714C37.3073 21.441 39.2239 23.2079 39.8127 25.5067Z" fill="url(#paint1_linear)"/>
<path d="M27.7712 33C27.0913 32.5062 26.4504 31.9542 25.8386 31.3581C23.996 29.5628 22.3907 27.3354 20.7754 25.0941C20.2215 24.3254 19.6663 23.5551 19.1 22.8C16.8603 19.8137 14.782 17.5019 12.1788 15.9279C10.8602 15.1306 9.39606 14.5163 7.69257 14.1051C6.55119 15.463 5.7181 17.0888 5.30108 18.8745C10.1092 20.7729 14.8739 25.6965 16.2254 33H27.7712Z" fill="url(#paint2_linear)"/>
<path d="M15.2079 33C13.8888 26.201 9.48312 21.68 5.11336 19.879C5.05766 20.2738 5.022 20.6751 5.00747 21.0817C2.16608 21.5547 0 24.0244 0 27C0 30.3137 2.68629 33 6 33H15.2079Z" fill="url(#paint3_linear)"/>
<defs>
<linearGradient id="paint0_linear" x1="0" y1="10" x2="39" y2="33" gradientUnits="userSpaceOnUse">
<stop stop-color="#BFBFC9"/>
<stop offset="1" stop-color="#8787B1"/>
</linearGradient>
<linearGradient id="paint1_linear" x1="0" y1="10" x2="39" y2="33" gradientUnits="userSpaceOnUse">
<stop stop-color="#BFBFC9"/>
<stop offset="1" stop-color="#8787B1"/>
</linearGradient>
<linearGradient id="paint2_linear" x1="0" y1="10" x2="39" y2="33" gradientUnits="userSpaceOnUse">
<stop stop-color="#BFBFC9"/>
<stop offset="1" stop-color="#8787B1"/>
</linearGradient>
<linearGradient id="paint3_linear" x1="0" y1="10" x2="39" y2="33" gradientUnits="userSpaceOnUse">
<stop stop-color="#BFBFC9"/>
<stop offset="1" stop-color="#8787B1"/>
</linearGradient>
</defs>
</svg>
