<svg width="40" height="40" viewBox="0 0 40 40" fill="none" xmlns="http://www.w3.org/2000/svg">
<path d="M31 12C30.6551 12 30.3203 12.0437 30.001 12.1258C28.6365 9.66538 26.0128 8 23 8C20.2863 8 17.8881 9.35121 16.4416 11.4176C18.8159 12.0422 20.7423 13.3687 22.1961 15.4039C23.5533 15.0049 25.2627 15.1973 26.7237 15.9278C28.2358 16.6839 29.5373 18.0447 29.927 20.0089C32.5752 20.1213 34.2533 21.2859 35.1215 23H36C38.2091 23 40 21.2091 40 19C40 16.7909 38.2091 15 36 15H34.874C34.4299 13.2748 32.8638 12 31 12Z" fill="url(#paint0_linear)"/>
<path d="M34.7717 27.4981C34.9492 26.026 34.804 24.6009 34.2403 23.4736C33.5249 22.0428 32.09 21 29.5 21H29.0587L29.0039 20.562C28.7784 18.7583 27.6565 17.5123 26.2764 16.8222C24.8781 16.1231 23.2783 16.0272 22.1857 16.4642L21.8091 16.6149L21.584 16.2773C19.7341 13.5024 16.9913 12.0703 13.2786 12.0025C9.81056 12.0818 6.80162 14.0196 5.20888 16.8589C7.69029 17.4568 9.6951 18.8026 11.1961 20.9039C12.5533 20.5049 14.2627 20.6973 15.7237 21.4278C17.2358 22.1839 18.5373 23.5447 18.927 25.5089C21.5887 25.6219 23.2705 26.7979 24.1348 28.5264C24.5117 29.2802 24.7246 30.1223 24.8052 31H30C32.2395 31 34.1352 29.5276 34.7717 27.4981Z" fill="url(#paint1_linear)"/>
<path d="M23.8003 31C23.7236 30.2649 23.5419 29.5766 23.2403 28.9736C22.5249 27.5428 21.09 26.5 18.5 26.5H18.0587L18.0039 26.062C17.7784 24.2583 16.6565 23.0123 15.2764 22.3222C13.8781 21.6231 12.2783 21.5272 11.1857 21.9642L10.8091 22.1149L10.584 21.7773C9.17249 19.66 7.24116 18.3245 4.75583 17.7803C4.31885 18.8063 4.05715 19.9248 4.00834 21.0983C2.20478 21.4612 0.752442 22.7946 0.219473 24.5304C1.72536 24.7964 3.26226 25.3195 4.56239 26.3596C5.83428 27.3771 6.84573 28.8624 7.39447 31H23.8003Z" fill="url(#paint2_linear)"/>
<path d="M6.35891 31C5.84767 29.1898 4.97713 27.972 3.9377 27.1404C2.80557 26.2347 1.43676 25.7584 0.0235832 25.5113C0.00798284 25.6721 0 25.8351 0 26C0 28.7614 2.23858 31 5 31H6.35891Z" fill="url(#paint3_linear)"/>
<defs>
<linearGradient id="paint0_linear" x1="3.5" y1="8" x2="39" y2="31" gradientUnits="userSpaceOnUse">
<stop stop-color="#B399FF"/>
<stop offset="1" stop-color="#8B63FF"/>
</linearGradient>
<linearGradient id="paint1_linear" x1="3.5" y1="8" x2="39" y2="31" gradientUnits="userSpaceOnUse">
<stop stop-color="#B399FF"/>
<stop offset="1" stop-color="#8B63FF"/>
</linearGradient>
<linearGradient id="paint2_linear" x1="3.5" y1="8" x2="39" y2="31" gradientUnits="userSpaceOnUse">
<stop stop-color="#B399FF"/>
<stop offset="1" stop-color="#8B63FF"/>
</linearGradient>
<linearGradient id="paint3_linear" x1="3.5" y1="8" x2="39" y2="31" gradientUnits="userSpaceOnUse">
<stop stop-color="#B399FF"/>
<stop offset="1" stop-color="#8B63FF"/>
</linearGradient>
</defs>
</svg>
