<svg width="40" height="40" viewBox="0 0 40 40" fill="none" xmlns="http://www.w3.org/2000/svg">
<path d="M1.00789 18.6704C4.13058 19.4757 8.52837 19.1087 12.4084 17.1986C16.4155 15.2258 19.9037 11.5895 20.8782 5.86276C23.4669 6.92941 25.5809 8.91355 26.8152 11.4102C27.4922 11.1454 28.2291 11 29 11C29.3884 11 29.7682 11.0369 30.136 11.1074C28.6349 14.5973 26.1323 18.9449 22.1598 22.6336C19.5291 25.0764 16.7547 26.8012 14.0003 28H6C2.68629 28 0 25.3137 0 22C0 20.7682 0.371219 19.623 1.00789 18.6704Z" fill="url(#paint0_linear)"/>
<path d="M1.70805 17.8073C2.57852 16.9163 3.72411 16.2954 5.00747 16.0817C5.22761 9.9242 10.2888 5 16.5 5C17.6915 5 18.8407 5.18122 19.9216 5.51759C19.0496 10.9892 15.7684 14.4298 11.9667 16.3014C8.46263 18.0265 4.54486 18.4035 1.70805 17.8073Z" fill="url(#paint1_linear)"/>
<path d="M16.315 28H31.1632C32.438 26.9921 33.7329 25.6895 34.85 24.2C36.3802 22.1597 37.5459 19.8106 37.8934 17.4346C37.0682 16.7302 36.0497 16.2456 34.9286 16.0714C34.5926 13.9091 33.102 12.1287 31.1069 11.3804C29.5667 14.996 26.9792 19.5231 22.8403 23.3664C20.728 25.3278 18.5261 26.8413 16.315 28Z" fill="url(#paint2_linear)"/>
<path d="M38.7482 18.3314C38.2557 20.656 37.0867 22.8845 35.65 24.8C34.7557 25.9925 33.7477 27.0769 32.7153 28H34C37.3137 28 40 25.3137 40 22C40 20.6183 39.533 19.3457 38.7482 18.3314Z" fill="url(#paint3_linear)"/>
<path fill-rule="evenodd" clip-rule="evenodd" d="M9 31C9 31.5523 8.55229 32 8 32C7.44772 32 7 31.5523 7 31C7 30.4477 7.44772 30 8 30C8.55229 30 9 30.4477 9 31ZM15 31C15 31.5523 14.5523 32 14 32C13.4477 32 13 31.5523 13 31C13 30.4477 13.4477 30 14 30C14.5523 30 15 30.4477 15 31ZM20 32C20.5523 32 21 31.5523 21 31C21 30.4477 20.5523 30 20 30C19.4477 30 19 30.4477 19 31C19 31.5523 19.4477 32 20 32ZM27 31C27 31.5523 26.5523 32 26 32C25.4477 32 25 31.5523 25 31C25 30.4477 25.4477 30 26 30C26.5523 30 27 30.4477 27 31ZM32 32C32.5523 32 33 31.5523 33 31C33 30.4477 32.5523 30 32 30C31.4477 30 31 30.4477 31 31C31 31.5523 31.4477 32 32 32Z" fill="#64B1FF"/>
<defs>
<linearGradient id="paint0_linear" x1="0" y1="5" x2="39" y2="28" gradientUnits="userSpaceOnUse">
<stop stop-color="#BFBFC9"/>
<stop offset="1" stop-color="#8787B1"/>
</linearGradient>
<linearGradient id="paint1_linear" x1="0" y1="5" x2="39" y2="28" gradientUnits="userSpaceOnUse">
<stop stop-color="#BFBFC9"/>
<stop offset="1" stop-color="#8787B1"/>
</linearGradient>
<linearGradient id="paint2_linear" x1="0" y1="5" x2="39" y2="28" gradientUnits="userSpaceOnUse">
<stop stop-color="#BFBFC9"/>
<stop offset="1" stop-color="#8787B1"/>
</linearGradient>
<linearGradient id="paint3_linear" x1="0" y1="5" x2="39" y2="28" gradientUnits="userSpaceOnUse">
<stop stop-color="#BFBFC9"/>
<stop offset="1" stop-color="#8787B1"/>
</linearGradient>
</defs>
</svg>
