<svg width="40" height="40" viewBox="0 0 40 40" fill="none" xmlns="http://www.w3.org/2000/svg">
<path d="M15.618 28H20C19.6212 28 19.275 27.786 19.1056 27.4472C18.9362 27.1084 18.9727 26.703 19.2 26.4L22.5 22H18.618L15.618 28Z" fill="url(#paint0_linear)"/>
<path fill-rule="evenodd" clip-rule="evenodd" d="M25.4454 28L25.7433 27.669C26.0075 27.3754 26.0742 26.9539 25.9135 26.5932C25.7528 26.2324 25.3949 26 25 26H22L25.3 21.6C25.5273 21.297 25.5638 20.8916 25.3944 20.5528C25.225 20.214 24.8788 20 24.5 20H18C17.6212 20 17.275 20.214 17.1056 20.5528L13.382 28H6C2.68629 28 0 25.3137 0 22C0 19.0244 2.16608 16.5547 5.00747 16.0817C5.22761 9.9242 10.2888 5 16.5 5C18.7551 5 20.8585 5.64908 22.6338 6.77061L19.1284 10.6655C18.9963 10.8123 18.9629 11.023 19.0433 11.2034C19.1236 11.3838 19.3025 11.5 19.5 11.5H22.8697L18.63 16.1637C18.4443 16.368 18.4593 16.6842 18.6637 16.87C18.868 17.0557 19.1842 17.0407 19.37 16.8363L24.37 11.3363C24.5031 11.1899 24.5373 10.9787 24.4573 10.7977C24.3772 10.6167 24.1979 10.5 24 10.5H20.6227L23.4615 7.34571C24.8701 8.41849 26.0236 9.80894 26.8152 11.4102C27.4922 11.1454 28.2291 11 29 11C31.9979 11 34.4823 13.1986 34.9286 16.0714C37.8014 16.5177 40 19.0021 40 22C40 25.3137 37.3137 28 34 28H25.4454ZM13.3345 11.6284C13.5397 11.8131 13.5564 12.1292 13.3717 12.3345L9.62268 16.5H13C13.1979 16.5 13.3772 16.6167 13.4573 16.7977C13.5373 16.9787 13.5031 17.1899 13.37 17.3363L8.36997 22.8363C8.18422 23.0407 7.868 23.0557 7.66367 22.87C7.45934 22.6842 7.44428 22.368 7.63003 22.1637L11.8697 17.5H8.5C8.30255 17.5 8.12359 17.3838 8.04325 17.2034C7.96292 17.023 7.99627 16.8123 8.12836 16.6655L12.6284 11.6655C12.8131 11.4603 13.1292 11.4436 13.3345 11.6284ZM33.3717 15.3345C33.5564 15.1292 33.5397 14.8131 33.3345 14.6284C33.1292 14.4436 32.8131 14.4603 32.6284 14.6655L28.1284 19.6655C27.9963 19.8123 27.9629 20.023 28.0433 20.2034C28.1236 20.3838 28.3025 20.5 28.5 20.5H31.8697L27.63 25.1637C27.4443 25.368 27.4593 25.6842 27.6637 25.87C27.868 26.0557 28.1842 26.0407 28.37 25.8363L33.37 20.3363C33.5031 20.1899 33.5373 19.9787 33.4573 19.7977C33.3772 19.6167 33.1979 19.5 33 19.5H29.6227L33.3717 15.3345Z" fill="url(#paint1_linear)"/>
<path d="M14.1447 28.7106L17.7236 21.5528C17.893 21.214 18.2393 21 18.618 21H24.1C24.2648 21 24.3589 21.1882 24.26 21.32L20 27H24.5509C24.7241 27 24.8154 27.2051 24.6996 27.3338L16 37L18 29H14.3236C14.1749 29 14.0782 28.8435 14.1447 28.7106Z" fill="url(#paint2_linear)"/>
<defs>
<linearGradient id="paint0_linear" x1="0" y1="5" x2="39" y2="28" gradientUnits="userSpaceOnUse">
<stop stop-color="#BFBFC9"/>
<stop offset="1" stop-color="#8787B1"/>
</linearGradient>
<linearGradient id="paint1_linear" x1="0" y1="5" x2="39" y2="28" gradientUnits="userSpaceOnUse">
<stop stop-color="#BFBFC9"/>
<stop offset="1" stop-color="#8787B1"/>
</linearGradient>
<linearGradient id="paint2_linear" x1="18" y1="21" x2="20" y2="37" gradientUnits="userSpaceOnUse">
<stop stop-color="#FF8C55"/>
<stop offset="1" stop-color="#FF6D55"/>
</linearGradient>
</defs>
</svg>
