<svg width="40" height="40" viewBox="0 0 40 40" fill="none" xmlns="http://www.w3.org/2000/svg">
<path d="M16.1339 28H23.866L25.5131 27.049C26.2306 26.6348 26.4764 25.7174 26.0622 25C25.6479 24.2826 24.7306 24.0367 24.0131 24.451L21.4999 25.9019V23C21.4999 22.1716 20.8284 21.5 19.9999 21.5C19.1715 21.5 18.4999 22.1716 18.4999 23V25.902L15.9867 24.451C15.2693 24.0368 14.3519 24.2826 13.9377 25C13.5235 25.7174 13.7693 26.6348 14.4867 27.049L16.1339 28Z" fill="url(#paint0_linear)"/>
<path fill-rule="evenodd" clip-rule="evenodd" d="M14.1339 28L13.9867 27.9151C12.791 27.2247 12.3813 25.6957 13.0717 24.5C13.762 23.3043 15.291 22.8946 16.4867 23.5849L17.4999 24.1699V23C17.4999 21.6193 18.6192 20.5 19.9999 20.5C21.3806 20.5 22.4999 21.6193 22.4999 23V24.1699L23.5131 23.5849C24.7089 22.8946 26.2378 23.3043 26.9282 24.5C27.6185 25.6957 27.2089 27.2247 26.0131 27.9151L25.866 28H34C37.3137 28 40 25.3137 40 22C40 19.0021 37.8014 16.5177 34.9286 16.0714C34.4823 13.1986 31.9979 11 29 11C28.2291 11 27.4922 11.1454 26.8152 11.4102C24.9375 7.61204 21.0238 5 16.5 5C10.2888 5 5.22761 9.9242 5.00747 16.0817C2.16608 16.5547 0 19.0244 0 22C0 25.3137 2.68629 28 6 28H14.1339ZM16.1651 9.5C16.1651 9.22386 16.389 9 16.6651 9C16.9412 9 17.1651 9.22386 17.1651 9.5V11.134L18.5802 10.317C18.8194 10.1789 19.1252 10.2609 19.2632 10.5C19.4013 10.7392 19.3194 11.045 19.0802 11.183L17.6652 12L19.0802 12.817C19.3194 12.955 19.4013 13.2608 19.2632 13.5C19.1252 13.7391 18.8194 13.8211 18.5802 13.683L17.1651 12.866V14.5C17.1651 14.7761 16.9412 15 16.6651 15C16.389 15 16.1651 14.7761 16.1651 14.5V12.8661L14.7501 13.683C14.511 13.8211 14.2052 13.7392 14.0671 13.5C13.929 13.2609 14.011 12.9551 14.2501 12.817L15.6652 12L14.2501 11.183C14.0109 11.0449 13.929 10.7391 14.0671 10.5C14.2051 10.2608 14.5109 10.1789 14.7501 10.317L16.1651 11.1339V9.5ZM7.16509 19.5C7.16509 19.2239 7.38895 19 7.66509 19C7.94124 19 8.16509 19.2239 8.16509 19.5V21.134L9.58023 20.317C9.81937 20.1789 10.1252 20.2609 10.2632 20.5C10.4013 20.7392 10.3194 21.045 10.0802 21.183L8.66521 22L10.0802 22.817C10.3194 22.955 10.4013 23.2608 10.2632 23.5C10.1252 23.7391 9.81936 23.8211 9.58021 23.683L8.16509 22.866V24.5C8.16509 24.7761 7.94124 25 7.66509 25C7.38895 25 7.16509 24.7761 7.16509 24.5V22.8661L5.7501 23.683C5.51095 23.8211 5.20516 23.7392 5.06708 23.5C4.92901 23.2609 5.01095 22.9551 5.2501 22.817L6.66521 22L5.25008 21.183C5.01094 21.0449 4.929 20.7391 5.06707 20.5C5.20514 20.2608 5.51094 20.1789 5.75008 20.317L7.16509 21.1339V19.5ZM31.6651 18C31.389 18 31.1651 18.2239 31.1651 18.5V20.1339L29.7501 19.317C29.5109 19.1789 29.2051 19.2608 29.0671 19.5C28.929 19.7391 29.0109 20.0449 29.2501 20.183L30.6652 21L29.2501 21.817C29.011 21.9551 28.929 22.2609 29.0671 22.5C29.2052 22.7392 29.511 22.8211 29.7501 22.683L31.1651 21.8661V23.5C31.1651 23.7761 31.389 24 31.6651 24C31.9412 24 32.1651 23.7761 32.1651 23.5V21.866L33.5802 22.683C33.8194 22.8211 34.1252 22.7391 34.2632 22.5C34.4013 22.2608 34.3194 21.955 34.0802 21.817L32.6652 21L34.0802 20.183C34.3194 20.045 34.4013 19.7392 34.2632 19.5C34.1252 19.2609 33.8194 19.1789 33.5802 19.317L32.1651 20.134V18.5C32.1651 18.2239 31.9412 18 31.6651 18Z" fill="url(#paint1_linear)"/>
<path d="M18.4999 23C18.4999 22.1716 19.1715 21.5 19.9999 21.5C20.8283 21.5 21.4999 22.1716 21.4999 23V25.9019L24.0131 24.451C24.7305 24.0367 25.6479 24.2826 26.0621 25C26.4763 25.7174 26.2305 26.6348 25.5131 27.049L22.9999 28.5L25.513 29.951C26.2304 30.3652 26.4762 31.2826 26.062 32C25.6478 32.7174 24.7304 32.9633 24.013 32.549L21.4999 31.0981V34C21.4999 34.8284 20.8283 35.5 19.9999 35.5C19.1715 35.5 18.4999 34.8284 18.4999 34V31.0981L15.9868 32.549C15.2694 32.9632 14.352 32.7174 13.9378 32C13.5235 31.2826 13.7694 30.3652 14.4868 29.951L16.9999 28.5L14.4867 27.049C13.7693 26.6348 13.5234 25.7174 13.9377 25C14.3519 24.2826 15.2693 24.0368 15.9867 24.451L18.4999 25.902V23Z" fill="url(#paint2_linear)"/>
<defs>
<linearGradient id="paint0_linear" x1="0" y1="5" x2="39" y2="28" gradientUnits="userSpaceOnUse">
<stop stop-color="#BFBFC9"/>
<stop offset="1" stop-color="#8787B1"/>
</linearGradient>
<linearGradient id="paint1_linear" x1="0" y1="5" x2="39" y2="28" gradientUnits="userSpaceOnUse">
<stop stop-color="#BFBFC9"/>
<stop offset="1" stop-color="#8787B1"/>
</linearGradient>
<linearGradient id="paint2_linear" x1="13.7365" y1="21.5" x2="27.6917" y2="34.2874" gradientUnits="userSpaceOnUse">
<stop stop-color="#D2F0FE"/>
<stop offset="1" stop-color="#A4B6E7"/>
</linearGradient>
</defs>
</svg>
